<?xml version="1.0" encoding="iso-8859-1"?>
<!-- Generator: Adobe Illustrator 16.0.0, SVG Export Plug-In . SVG Version: 6.00 Build 0)  -->
<!DOCTYPE svg PUBLIC "-//W3C//DTD SVG 1.1//EN" "http://www.w3.org/Graphics/SVG/1.1/DTD/svg11.dtd">
<svg version="1.1" xmlns="http://www.w3.org/2000/svg" xmlns:xlink="http://www.w3.org/1999/xlink" x="0px" y="0px" width="520px"
	 height="520px" viewBox="0 0 520 520" style="enable-background:new 0 0 520 520;" xml:space="preserve">
<g id="_x34_9_x2C__Business_x2C__Ideas_x2C__Intelligence_x2C__Solutions">
	<g>
		<g>
			<path style="fill:#9BC9FF;" d="M447.502,72.5c13.8,0,25,11.19,25,25s-11.2,25-25,25c-13.811,0-25-11.19-25-25
				S433.691,72.5,447.502,72.5z"/>
			<path style="fill:#9BC9FF;" d="M77.501,412.5c11.04,0,20,8.95,20,20s-8.96,20-20,20c-11.05,0-20-8.95-20-20
				S66.452,412.5,77.501,412.5z"/>
			<path style="fill:#9BC9FF;" d="M267.502,387.5v5c0,8.28-6.721,15-15,15c-8.29,0-15-6.72-15-15v-5H267.502z"/>
			<path style="fill:#FFFFFF;" d="M283.842,383.84c-2.27,2.26-5.391,3.66-8.84,3.66h-7.5h-30h-7.5c-6.91,0-12.5-5.6-12.5-12.5
				c0-3.45,1.4-6.58,3.66-8.84c2.26-2.26,5.39-3.66,8.84-3.66h12.5h20h12.5c6.9,0,12.5,5.6,12.5,12.5
				C287.502,378.45,286.102,381.58,283.842,383.84z"/>
			<path style="fill:#FFFFFF;" d="M342.502,248.53h-25.78c0-35.68-28.62-64.65-64.29-64.65c-17.84,0-34,7.24-45.7,18.94
				c-11.71,11.71-18.95,27.87-18.95,45.71h-25.28l-0.66,0.02c-0.06-1.3-0.09-2.61-0.09-3.93c0-25.04,10.16-47.72,26.59-64.15
				c16.43-16.43,39.11-26.59,64.16-26.59c50.081,0,90.25,40.66,90.25,90.74c0,1.31-0.03,2.62-0.08,3.92L342.502,248.53z"/>
			<path style="fill:#9BC9FF;" d="M230.001,362.5h-9.37c-10.61,0-19.21-8.6-19.21-19.2v-24.29c-22.78-15.67-38.3-41.319-39.58-70.46
				l0.66-0.02h25.28c0-17.84,7.24-34,18.95-45.71c11.7-11.7,27.86-18.94,45.7-18.94c35.67,0,64.29,28.97,64.29,64.65h25.78
				l0.17,0.01c-1.25,29.14-16.32,54.8-39.1,70.47v24.29c0,10.601-8.601,19.2-19.201,19.2h-9.369H230.001z"/>
			<path style="fill:#1E81CE;" d="M450.002,357.5c4.14,0,7.5,3.36,7.5,7.5s-3.36,7.5-7.5,7.5c-4.15,0-7.5-3.36-7.5-7.5
				S445.852,357.5,450.002,357.5z"/>
			<path style="fill:#1E81CE;" d="M440.002,172.5c4.14,0,7.5,3.36,7.5,7.5s-3.36,7.5-7.5,7.5c-4.15,0-7.5-3.36-7.5-7.5
				S435.852,172.5,440.002,172.5z"/>
			<path style="fill:#1E81CE;" d="M355.002,72.5c4.14,0,7.5,3.36,7.5,7.5s-3.36,7.5-7.5,7.5c-4.15,0-7.5-3.36-7.5-7.5
				S350.852,72.5,355.002,72.5z"/>
			<path style="fill:#1E81CE;" d="M340.002,447.5c4.14,0,7.5,3.36,7.5,7.5s-3.36,7.5-7.5,7.5c-4.15,0-7.5-3.36-7.5-7.5
				S335.852,447.5,340.002,447.5z"/>
			<path style="fill:#1E81CE;" d="M170.001,57.5c4.14,0,7.5,3.36,7.5,7.5s-3.36,7.5-7.5,7.5c-4.15,0-7.5-3.36-7.5-7.5
				S165.852,57.5,170.001,57.5z"/>
			<path style="fill:#1E81CE;" d="M165.001,417.5c4.14,0,7.5,3.36,7.5,7.5s-3.36,7.5-7.5,7.5c-4.15,0-7.5-3.36-7.5-7.5
				S160.852,417.5,165.001,417.5z"/>
			<path style="fill:#1E81CE;" d="M60.001,122.5c4.14,0,7.5,3.36,7.5,7.5s-3.36,7.5-7.5,7.5c-4.15,0-7.5-3.36-7.5-7.5
				S55.852,122.5,60.001,122.5z"/>
			<path style="fill:#1E81CE;" d="M57.452,304.2c0.44,4.12-2.54,7.819-6.65,8.26c-4.12,0.44-7.82-2.54-8.26-6.66
				c-0.44-4.12,2.54-7.819,6.66-8.26S57.012,300.08,57.452,304.2z"/>
			<path style="fill:#1E81CE;" d="M284.371,367.5h-9.369c-2.762,0-5-2.238-5-5s2.238-5,5-5h9.369c7.83,0,14.201-6.37,14.201-14.2
				v-24.29c0-1.646,0.81-3.187,2.166-4.119c22.318-15.354,35.782-39.615,36.938-66.565c0.051-1.311,0.076-2.53,0.076-3.706
				c0-47.277-38.244-85.74-85.25-85.74c-22.892,0-44.422,8.923-60.624,25.126c-16.203,16.202-25.126,37.729-25.126,60.614
				c0,1.234,0.029,2.478,0.085,3.699c1.158,26.369,15.146,51.25,37.419,66.572c1.356,0.933,2.167,2.473,2.167,4.119v24.29
				c0,7.83,6.375,14.2,14.21,14.2h9.37c2.761,0,5,2.238,5,5s-2.239,5-5,5h-9.37c-13.35,0-24.21-10.856-24.21-24.2v-21.705
				c-23.58-17.189-38.319-44.22-39.575-72.826c-0.063-1.362-0.095-2.762-0.095-4.149c0-25.557,9.963-49.595,28.055-67.686
				c18.091-18.091,42.132-28.055,67.695-28.055c52.521,0,95.25,42.949,95.25,95.74c0,1.304-0.027,2.649-0.084,4.111
				c-1.255,29.257-15.462,55.657-39.096,72.864V343.3C308.572,356.644,297.716,367.5,284.371,367.5z"/>
			<path style="fill:#1E81CE;" d="M342.502,253.53h-25.78c-2.761,0-5-2.239-5-5c0-32.891-26.597-59.65-59.29-59.65
				c-15.921,0-30.895,6.206-42.164,17.476c-11.276,11.275-17.486,26.253-17.486,42.174c0,2.761-2.239,5-5,5h-25.28
				c-2.761,0-5-2.239-5-5s2.239-5,5-5h20.456c1.18-16.711,8.261-32.268,20.239-44.246c13.158-13.158,30.644-20.404,49.235-20.404
				c36.535,0,66.556,28.569,69.113,64.65h20.957c2.761,0,5,2.239,5,5S345.263,253.53,342.502,253.53z"/>
			<path style="fill:#1E81CE;" d="M252.501,131.11c-2.761,0-5-2.239-5-5V62.64c0-2.761,2.239-5,5-5s5,2.239,5,5v63.47
				C257.502,128.871,255.263,131.11,252.501,131.11z"/>
			<path style="fill:#1E81CE;" d="M252.497,131.11c-0.908,0-1.828-0.247-2.653-0.766l-21.33-13.39
				c-2.339-1.468-3.045-4.554-1.577-6.893c1.468-2.338,4.555-3.045,6.893-1.577l21.33,13.39c2.338,1.468,3.045,4.554,1.577,6.893
				C255.787,130.281,254.16,131.11,252.497,131.11z"/>
			<path style="fill:#1E81CE;" d="M252.506,131.11c-1.663,0-3.289-0.829-4.239-2.341c-1.468-2.338-0.763-5.425,1.575-6.894
				l21.32-13.39c2.34-1.467,5.424-0.763,6.895,1.575c1.468,2.338,0.763,5.425-1.576,6.894l-21.32,13.39
				C254.334,130.863,253.415,131.11,252.506,131.11z"/>
			<path style="fill:#1E81CE;" d="M342.252,168.3c-1.28,0-2.56-0.488-3.536-1.464c-1.952-1.953-1.952-5.119,0-7.071l45.13-45.13
				c1.954-1.952,5.119-1.952,7.072,0c1.952,1.953,1.952,5.119,0,7.071l-45.131,45.13C344.811,167.812,343.531,168.3,342.252,168.3z"
				/>
			<path style="fill:#1E81CE;" d="M342.247,168.301c-2.288,0-4.353-1.581-4.874-3.907l-5.45-24.3
				c-0.604-2.694,1.091-5.369,3.784-5.973c2.693-0.603,5.369,1.09,5.974,3.785l5.45,24.3c0.604,2.694-1.091,5.369-3.785,5.973
				C342.977,168.261,342.609,168.301,342.247,168.301z"/>
			<path style="fill:#1E81CE;" d="M367.047,173.751c-0.356,0-0.717-0.038-1.079-0.118l-24.79-5.45
				c-2.697-0.593-4.402-3.26-3.81-5.957s3.261-4.403,5.957-3.81l24.79,5.45c2.697,0.593,4.402,3.26,3.81,5.957
				C371.412,172.159,369.343,173.751,367.047,173.751z"/>
			<path style="fill:#1E81CE;" d="M443.412,258.55h-63.471c-2.761,0-5-2.239-5-5s2.239-5,5-5h63.471c2.761,0,5,2.239,5,5
				S446.173,258.55,443.412,258.55z"/>
			<path style="fill:#1E81CE;" d="M379.938,258.551c-0.909,0-1.828-0.248-2.654-0.767c-2.339-1.469-3.044-4.555-1.576-6.894
				l13.391-21.32c1.468-2.339,4.555-3.043,6.893-1.575c2.339,1.469,3.044,4.555,1.576,6.894l-13.391,21.32
				C383.227,257.721,381.6,258.551,379.938,258.551z"/>
			<path style="fill:#1E81CE;" d="M393.336,279.871c-1.662,0-3.289-0.829-4.238-2.342l-13.391-21.32
				c-1.468-2.338-0.763-5.425,1.576-6.894c2.338-1.468,5.424-0.763,6.893,1.575l13.391,21.32c1.468,2.339,0.763,5.425-1.576,6.894
				C395.164,279.623,394.244,279.871,393.336,279.871z"/>
			<path style="fill:#1E81CE;" d="M387.382,393.43c-1.28,0-2.56-0.488-3.536-1.465l-45.13-45.13c-1.952-1.952-1.952-5.118,0-7.07
				c1.953-1.953,5.118-1.953,7.071,0l45.131,45.13c1.952,1.952,1.952,5.118,0,7.07C389.941,392.941,388.662,393.43,387.382,393.43z"
				/>
			<path style="fill:#1E81CE;" d="M342.246,348.301c-2.297,0-4.365-1.592-4.878-3.928c-0.593-2.696,1.112-5.363,3.81-5.957
				l24.79-5.45c2.701-0.591,5.364,1.113,5.957,3.811c0.593,2.696-1.112,5.363-3.81,5.957l-24.79,5.45
				C342.963,348.263,342.602,348.301,342.246,348.301z"/>
			<path style="fill:#1E81CE;" d="M336.807,373.101c-0.355,0-0.717-0.038-1.078-0.117c-2.697-0.593-4.402-3.26-3.811-5.957
				l5.45-24.8c0.593-2.697,3.259-4.401,5.956-3.811c2.697,0.593,4.403,3.26,3.811,5.957l-5.449,24.8
				C341.172,371.509,339.104,373.101,336.807,373.101z"/>
			<path style="fill:#1E81CE;" d="M117.122,393.43c-1.28,0-2.559-0.488-3.536-1.465c-1.953-1.952-1.953-5.118,0-7.07l45.13-45.13
				c1.953-1.953,5.118-1.953,7.071,0c1.953,1.952,1.953,5.118,0,7.07l-45.13,45.13C119.681,392.941,118.401,393.43,117.122,393.43z"
				/>
			<path style="fill:#1E81CE;" d="M167.697,373.101c-2.297,0-4.365-1.592-4.878-3.928l-5.45-24.8
				c-0.593-2.697,1.113-5.364,3.81-5.957c2.696-0.591,5.364,1.113,5.957,3.811l5.45,24.8c0.593,2.697-1.113,5.364-3.81,5.957
				C168.414,373.063,168.052,373.101,167.697,373.101z"/>
			<path style="fill:#1E81CE;" d="M162.256,348.301c-0.363,0-0.73-0.039-1.099-0.122l-24.3-5.45
				c-2.694-0.604-4.389-3.278-3.785-5.974c0.604-2.693,3.276-4.39,5.973-3.784l24.3,5.45c2.694,0.604,4.389,3.278,3.785,5.974
				C166.608,346.72,164.544,348.301,162.256,348.301z"/>
			<path style="fill:#1E81CE;" d="M125.062,258.55h-63.48c-2.761,0-5-2.239-5-5s2.239-5,5-5h63.48c2.761,0,5,2.239,5,5
				S127.823,258.55,125.062,258.55z"/>
			<path style="fill:#1E81CE;" d="M111.667,279.871c-0.909,0-1.828-0.248-2.654-0.767c-2.338-1.469-3.043-4.555-1.575-6.894
				l13.39-21.32c1.468-2.339,4.555-3.044,6.894-1.575c2.338,1.469,3.043,4.555,1.575,6.894l-13.39,21.32
				C114.957,279.042,113.33,279.871,111.667,279.871z"/>
			<path style="fill:#1E81CE;" d="M125.066,258.551c-1.663,0-3.289-0.83-4.239-2.342l-13.39-21.32
				c-1.468-2.338-0.763-5.425,1.575-6.894c2.339-1.468,5.424-0.763,6.894,1.575l13.39,21.32c1.468,2.338,0.763,5.425-1.575,6.894
				C126.895,258.303,125.975,258.551,125.066,258.551z"/>
			<path style="fill:#1E81CE;" d="M162.251,168.3c-1.28,0-2.559-0.488-3.536-1.464l-45.13-45.13c-1.953-1.953-1.953-5.119,0-7.071
				c1.953-1.952,5.118-1.952,7.071,0l45.13,45.13c1.953,1.953,1.953,5.119,0,7.071C164.811,167.812,163.531,168.3,162.251,168.3z"/>
			<path style="fill:#1E81CE;" d="M137.947,173.751c-2.289,0-4.353-1.581-4.875-3.907c-0.604-2.694,1.09-5.369,3.785-5.973
				l24.3-5.45c2.694-0.603,5.369,1.09,5.973,3.785c0.604,2.694-1.09,5.369-3.785,5.973l-24.3,5.45
				C138.678,173.711,138.31,173.751,137.947,173.751z"/>
			<path style="fill:#1E81CE;" d="M162.256,168.301c-0.362,0-0.73-0.04-1.099-0.122c-2.694-0.604-4.389-3.279-3.785-5.973l5.45-24.3
				c0.604-2.695,3.277-4.388,5.973-3.785c2.694,0.604,4.389,3.279,3.785,5.973l-5.45,24.3
				C166.608,166.72,164.544,168.301,162.256,168.301z"/>
			<path style="fill:#1E81CE;" d="M275.002,392.5h-7.5c-2.762,0-5-2.238-5-5s2.238-5,5-5h7.5c1.998,0,3.885-0.782,5.313-2.204
				c1.407-1.407,2.188-3.291,2.188-5.296c0-4.136-3.365-7.5-7.5-7.5h-45c-2.004,0-3.888,0.78-5.305,2.196
				c-1.416,1.415-2.195,3.299-2.195,5.304c0,4.136,3.364,7.5,7.5,7.5h7.5c2.761,0,5,2.238,5,5s-2.239,5-5,5h-7.5
				c-9.649,0-17.5-7.851-17.5-17.5c0-4.676,1.82-9.07,5.125-12.375c3.306-3.305,7.701-5.125,12.375-5.125h45
				c9.648,0,17.5,7.851,17.5,17.5c0,4.676-1.82,9.071-5.125,12.375C284.055,390.683,279.662,392.5,275.002,392.5z"/>
			<path style="fill:#1E81CE;" d="M252.501,412.5c-11.028,0-20-8.972-20-20v-5c0-2.762,2.239-5,5-5h30c2.761,0,5,2.238,5,5v5
				C272.502,403.528,263.529,412.5,252.501,412.5z M242.501,392.5c0,5.514,4.486,10,10,10s10-4.486,10-10H242.501z"/>
			<path style="fill:#1E81CE;" d="M242.501,367.5c-2.761,0-5-2.238-5-5v-90c0-2.762,2.239-5,5-5s5,2.238,5,5v90
				C247.501,365.262,245.263,367.5,242.501,367.5z"/>
			<path style="fill:#1E81CE;" d="M242.501,277.5h-10c-8.271,0-15-6.729-15-15c0-4.005,1.561-7.771,4.395-10.605
				c2.815-2.831,6.585-4.395,10.605-4.395c4.005,0,7.772,1.561,10.606,4.395c2.833,2.833,4.394,6.6,4.394,10.605v10
				C247.501,275.262,245.263,277.5,242.501,277.5z M232.501,257.5c-1.339,0-2.591,0.518-3.525,1.456
				c-0.955,0.955-1.475,2.21-1.475,3.544c0,2.757,2.243,5,5,5h5v-5c0-1.334-0.521-2.59-1.465-3.534
				C235.091,258.021,233.836,257.5,232.501,257.5z"/>
			<path style="fill:#1E81CE;" d="M262.502,277.5h-20c-2.761,0-5-2.238-5-5s2.239-5,5-5h20c2.761,0,5,2.238,5,5
				S265.263,277.5,262.502,277.5z"/>
			<path style="fill:#1E81CE;" d="M272.502,277.5h-10c-2.762,0-5-2.238-5-5v-10c0-8.271,6.729-15,15-15
				c4.005,0,7.771,1.561,10.605,4.395c2.834,2.833,4.395,6.6,4.395,10.605c0,4.005-1.561,7.771-4.395,10.605
				S276.506,277.5,272.502,277.5z M267.502,267.5h5c1.334,0,2.59-0.521,3.535-1.466c0.943-0.944,1.465-2.2,1.465-3.534
				s-0.521-2.59-1.466-3.534c-0.944-0.945-2.2-1.466-3.534-1.466c-2.758,0-5,2.243-5,5V267.5z"/>
			<path style="fill:#1E81CE;" d="M262.502,367.5c-2.762,0-5-2.238-5-5v-90c0-2.762,2.238-5,5-5c2.761,0,5,2.238,5,5v90
				C267.502,365.262,265.263,367.5,262.502,367.5z"/>
			<path style="fill:#1E81CE;" d="M77.501,457.5c-13.785,0-25-11.215-25-25s11.215-25,25-25s25,11.215,25,25
				S91.287,457.5,77.501,457.5z M77.501,417.5c-8.271,0-15,6.729-15,15s6.729,15,15,15s15-6.729,15-15S85.772,417.5,77.501,417.5z"
				/>
			<path style="fill:#1E81CE;" d="M447.502,127.5c-16.543,0-30-13.458-30-30s13.457-30,30-30c16.541,0,30,13.458,30,30
				S464.043,127.5,447.502,127.5z M447.502,77.5c-11.028,0-20,8.972-20,20s8.972,20,20,20c11.027,0,20-8.972,20-20
				S458.529,77.5,447.502,77.5z"/>
		</g>
	</g>
</g>
<g id="Layer_1">
</g>
</svg>
